<svg width="797" height="196" viewBox="0 0 797 196" fill="none" xmlns="http://www.w3.org/2000/svg">
<path d="M235.323 126.475V35.7549H273.677C279.051 35.7549 283.861 37.0509 288.108 39.6429C292.442 42.1485 295.866 45.6045 298.379 50.0109C300.979 54.3309 302.28 59.2125 302.28 64.6557C302.28 70.2717 300.979 75.3261 298.379 79.8189C295.866 84.2253 292.442 87.7677 288.108 90.4461C283.861 93.0381 279.051 94.3341 273.677 94.3341H254.045V126.475H235.323ZM253.915 77.3565H271.727C274.934 77.3565 277.621 76.1901 279.787 73.8573C282.041 71.4381 283.168 68.4573 283.168 64.9149C283.168 61.3725 282.041 58.4781 279.787 56.2317C277.621 53.8989 274.934 52.7325 271.727 52.7325H253.915V77.3565Z" fill="white"/>
<path d="M347.735 127.771C340.714 127.771 334.474 126.259 329.013 123.235C323.553 120.124 319.262 115.891 316.142 110.534C313.022 105.177 311.461 99.0428 311.461 92.1308C311.461 85.3052 313.022 79.214 316.142 73.8572C319.262 68.5004 323.553 64.31 329.013 61.286C334.474 58.1756 340.714 56.6204 347.735 56.6204C354.582 56.6204 360.736 58.1756 366.197 61.286C371.657 64.31 375.947 68.5004 379.068 73.8572C382.188 79.214 383.748 85.3052 383.748 92.1308C383.748 99.0428 382.188 105.177 379.068 110.534C375.947 115.891 371.657 120.124 366.197 123.235C360.736 126.259 354.582 127.771 347.735 127.771ZM347.735 112.348C351.202 112.348 354.322 111.484 357.096 109.756C359.869 107.942 361.993 105.523 363.466 102.499C365.026 99.4748 365.807 96.0188 365.807 92.1308C365.807 88.2428 365.026 84.7868 363.466 81.7628C361.993 78.7388 359.869 76.3628 357.096 74.6348C354.322 72.9068 351.202 72.0428 347.735 72.0428C344.181 72.0428 341.018 72.9068 338.244 74.6348C335.47 76.3628 333.304 78.7388 331.743 81.7628C330.183 84.7868 329.403 88.2428 329.403 92.1308C329.403 96.0188 330.183 99.4748 331.743 102.499C333.304 105.523 335.47 107.942 338.244 109.756C341.018 111.484 344.181 112.348 347.735 112.348Z" fill="white"/>
<path d="M424.947 127.771C418.879 127.771 413.462 126.259 408.695 123.235C403.928 120.125 400.158 115.891 397.384 110.534C394.697 105.177 393.354 99.0863 393.354 92.2607C393.354 85.3487 394.697 79.2143 397.384 73.8575C400.158 68.5007 403.928 64.3103 408.695 61.2863C413.462 58.1759 418.879 56.6207 424.947 56.6207C429.107 56.6207 433.051 57.4415 436.778 59.0831C440.592 60.7247 443.668 62.8415 446.009 65.4335V30.571H463.819V126.475H446.919L446.659 118.31C444.405 120.989 441.328 123.235 437.428 125.049C433.528 126.864 429.367 127.771 424.947 127.771ZM428.847 112.997C434.134 112.997 438.425 111.096 441.718 107.294C445.012 103.406 446.659 98.3951 446.659 92.2607C446.659 86.0399 445.012 81.0287 441.718 77.2271C438.425 73.3391 434.134 71.3951 428.847 71.3951C423.56 71.3951 419.27 73.3391 415.976 77.2271C412.682 81.0287 411.035 86.0399 411.035 92.2607C411.035 98.3951 412.682 103.406 415.976 107.294C419.27 111.096 423.56 112.997 428.847 112.997Z" fill="white"/>
<path d="M511.599 127.771C505.098 127.771 499.248 126.216 494.047 123.105C488.934 119.995 484.86 115.761 481.826 110.404C478.879 105.048 477.406 98.9564 477.406 92.1308C477.406 85.3916 478.879 79.3436 481.826 73.9868C484.86 68.63 488.934 64.3964 494.047 61.286C499.248 58.1756 505.098 56.6204 511.599 56.6204C517.753 56.6204 523.343 57.7436 528.371 59.99C533.484 62.2364 537.471 65.39 540.332 69.4508L530.581 81.1148C528.761 78.6092 526.247 76.4924 523.04 74.7644C519.833 72.95 516.583 72.0428 513.289 72.0428C509.649 72.0428 506.399 72.95 503.538 74.7644C500.765 76.4924 498.554 78.8684 496.908 81.8924C495.347 84.9164 494.567 88.3292 494.567 92.1308C494.567 95.9324 495.391 99.3452 497.038 102.369C498.684 105.393 500.938 107.812 503.798 109.627C506.659 111.355 509.865 112.219 513.419 112.219C516.799 112.219 519.92 111.484 522.78 110.016C525.64 108.46 528.241 106.3 530.581 103.536L540.332 115.2C537.385 119.001 533.311 122.068 528.111 124.401C522.91 126.648 517.406 127.771 511.599 127.771Z" fill="white"/>
<path d="M578.035 127.771C572.315 127.771 567.158 126.216 562.564 123.105C557.97 119.995 554.286 115.761 551.513 110.404C548.826 105.048 547.482 98.9564 547.482 92.1308C547.482 85.1324 548.826 78.998 551.513 73.7276C554.286 68.3708 558.013 64.1804 562.694 61.1564C567.461 58.1324 572.835 56.6204 578.815 56.6204C583.669 56.6204 587.916 57.614 591.557 59.6012C595.197 61.502 598.101 64.0076 600.267 67.118V58.046H617.949V126.475H600.137V117.273C597.711 120.297 594.547 122.803 590.647 124.79C586.833 126.777 582.629 127.771 578.035 127.771ZM582.846 112.348C588.133 112.348 592.423 110.491 595.717 106.776C599.011 103.06 600.658 98.1788 600.658 92.1308C600.658 86.0828 599.011 81.2012 595.717 77.486C592.423 73.7708 588.133 71.9132 582.846 71.9132C577.645 71.9132 573.398 73.7708 570.105 77.486C566.898 81.2012 565.294 86.0828 565.294 92.1308C565.294 98.1788 566.898 103.06 570.105 106.776C573.398 110.491 577.645 112.348 582.846 112.348Z" fill="white"/>
<path d="M659.613 127.771C653.286 127.771 647.652 126.734 642.712 124.66C637.771 122.587 633.784 119.649 630.75 115.848L641.932 106.387C644.532 109.238 647.479 111.312 650.772 112.608C654.066 113.817 657.403 114.422 660.783 114.422C663.47 114.422 665.637 113.817 667.284 112.608C668.931 111.398 669.754 109.713 669.754 107.553C669.754 105.652 668.974 104.14 667.414 103.017C665.854 101.98 662.127 100.684 656.233 99.1292C647.479 96.8828 641.281 93.8156 637.641 89.9276C634.434 86.4716 632.831 82.1948 632.831 77.0972C632.831 73.0364 634.044 69.494 636.471 66.47C638.898 63.3596 642.105 60.9404 646.092 59.2124C650.079 57.4844 654.413 56.6204 659.093 56.6204C664.467 56.6204 669.537 57.5708 674.305 59.4716C679.072 61.3724 683.059 63.9644 686.266 67.2476L676.645 77.7452C674.218 75.4988 671.401 73.6412 668.194 72.1724C665.074 70.6172 662.17 69.8396 659.483 69.8396C653.243 69.8396 650.122 71.9996 650.122 76.3196C650.209 78.3932 651.162 80.0348 652.983 81.2444C654.716 82.454 658.66 83.8796 664.814 85.5212C673.048 87.6812 678.855 90.5324 682.235 94.0748C685.182 97.0988 686.656 101.116 686.656 106.128C686.656 110.275 685.442 113.99 683.015 117.273C680.675 120.556 677.468 123.148 673.394 125.049C669.321 126.864 664.727 127.771 659.613 127.771Z" fill="white"/>
<path d="M706.84 126.475V73.9866H693.839V58.0458H706.84V40.5498H724.522V58.0458H738.953V73.9866H724.522V126.475H706.84Z" fill="white"/>
<path d="M750.865 126.475V58.046H768.027L768.287 69.3212C770.54 65.606 773.487 62.582 777.127 60.2492C780.854 57.83 784.755 56.6204 788.828 56.6204C790.389 56.6204 791.819 56.75 793.119 57.0092C794.506 57.182 795.676 57.4412 796.629 57.7868L791.819 77.2268C790.865 76.7084 789.652 76.2764 788.178 75.9308C786.705 75.5852 785.231 75.4124 783.758 75.4124C779.511 75.4124 775.914 76.8812 772.967 79.8188C770.107 82.67 768.677 86.2988 768.677 90.7052V126.475H750.865Z" fill="white"/>
<path d="M196.381 97.2677C196.513 114.367 192.127 131.2 183.663 146.075C182.567 148.007 181.406 149.897 180.18 151.745C179.574 152.684 178.787 153.494 177.864 154.127C176.942 154.761 175.903 155.206 174.806 155.436C173.71 155.666 172.579 155.677 171.478 155.468C170.378 155.259 169.33 154.835 168.395 154.219C167.461 153.603 166.658 152.809 166.034 151.882C165.409 150.955 164.976 149.913 164.758 148.817C164.541 147.722 164.543 146.595 164.767 145.5C164.99 144.405 165.429 143.366 166.057 142.442C174.135 130.219 178.74 116.042 179.382 101.419C180.023 86.796 176.678 72.2727 169.702 59.3932C162.725 46.5136 152.378 35.7589 139.76 28.2724C127.143 20.7859 112.726 16.8473 98.0421 16.8752C69.818 16.9301 44.7928 31.6999 30.247 53.768C21.5515 66.9343 16.9243 82.3545 16.9393 98.1177C16.9543 113.881 21.611 129.293 30.3316 142.442C31.568 144.31 32.0093 146.591 31.5585 148.783C31.1077 150.976 29.8017 152.9 27.9278 154.132C26.0538 155.365 23.7655 155.805 21.5662 155.355C19.3669 154.906 17.4368 153.604 16.2004 151.736C6.53076 137.108 0.976586 120.162 0.117422 102.664C-0.741688 85.1674 3.12569 67.7616 11.316 52.2625C19.5064 36.7632 31.7195 23.7392 46.6807 14.5495C61.6424 5.35976 78.8041 0.341055 96.3747 0.0170553C96.9928 0.00441929 97.606 0.000207581 98.2198 0.000207581C124.169 -0.0530904 149.079 10.1591 167.483 28.3951C185.886 46.6314 196.279 71.4012 196.381 97.2677Z" fill="white"/>
<path d="M38.962 112.964L54.303 189.037C55.2239 193.604 59.6839 196.561 64.2652 195.643C68.8465 194.725 71.814 190.279 70.8931 185.713L55.5522 109.64C54.6313 105.073 50.1708 102.115 45.5895 103.033C41.0084 103.951 38.0411 108.398 38.962 112.964Z" fill="#04D361"/>
<path d="M54.0099 187.322L50.1203 188.102C44.3413 189.262 38.3357 188.177 33.3323 185.069C28.329 181.962 24.7058 177.065 23.2038 171.383C23.0896 170.944 22.9838 170.505 22.8949 170.058L17.3211 142.455C16.1132 136.463 17.3413 130.238 20.7355 125.149C24.1296 120.059 29.4121 116.521 35.4221 115.312L39.3115 114.531L46.1338 148.315L54.0099 187.322Z" fill="white"/>
<path d="M54.01 187.322L50.121 188.102C44.3414 189.262 38.3361 188.177 33.3327 185.069C28.3293 181.962 24.7061 177.066 23.2041 171.383C31.424 164.285 39.0895 156.574 46.1339 148.315L54.01 187.322Z" fill="white"/>
<path d="M185.669 136.147L183.663 146.074C182.567 148.006 181.406 149.896 180.18 151.744C179.574 152.683 178.787 153.493 177.864 154.127C176.942 154.761 175.903 155.206 174.806 155.436C173.71 155.666 172.579 155.677 171.478 155.468C170.378 155.259 169.33 154.835 168.395 154.219C167.46 153.603 166.658 152.809 166.033 151.881C165.409 150.954 164.976 149.913 164.758 148.817C164.541 147.722 164.543 146.594 164.766 145.5C164.99 144.405 165.428 143.366 166.057 142.442C171.795 133.786 175.8 124.106 177.852 113.936C181.037 116.596 183.445 120.063 184.82 123.971C186.196 127.881 186.489 132.087 185.669 136.147Z" fill="white"/>
<path d="M175.634 37.5556L163.492 49.6591C155.927 39.4606 146.06 31.1792 134.69 25.4841C123.321 19.7891 110.766 16.84 98.0421 16.8752C69.8175 16.93 44.7928 31.6999 30.2468 53.7679L17.9312 41.4916C26.8107 28.9138 38.5426 18.6023 52.1732 11.3956C65.8034 4.18886 80.9476 0.290387 96.3747 0.0170926C96.9922 0.00445664 97.606 0.000244934 98.2198 0.000244934C113.141 -0.0330731 127.873 3.33318 141.29 9.84196C154.707 16.3508 166.454 25.8299 175.634 37.5556Z" fill="#8257E5"/>
<path d="M140.7 109.558L125.359 185.631C124.438 190.197 127.405 194.644 131.986 195.562C136.568 196.48 141.028 193.522 141.949 188.955L157.29 112.882C158.211 108.316 155.243 103.87 150.662 102.952C146.081 102.034 141.621 104.991 140.7 109.558Z" fill="#04D361"/>
<path d="M179.067 142.455L173.493 170.058C172.283 176.05 168.735 181.317 163.629 184.7C158.523 188.085 152.278 189.308 146.267 188.102L142.378 187.322L146.407 167.379L157.076 114.531L160.966 115.312C166.975 116.522 172.258 120.059 175.656 125.145C176.124 125.847 176.552 126.573 176.938 127.322C179.353 131.979 180.104 137.316 179.067 142.455Z" fill="white"/>
<path d="M179.067 142.455L173.493 170.058C172.283 176.05 168.735 181.316 163.629 184.701C158.523 188.084 152.278 189.308 146.267 188.101L142.378 187.321L146.407 167.379C158.002 155.161 168.238 141.731 176.938 127.322C179.353 131.978 180.104 137.316 179.067 142.455Z" fill="white"/>
</svg>
